# xmcd
#
# Track frame offsets:
#	150
#	18383
#	38713
#	54763
#	74548
#	102230
#	122170
#	140555
#	173913
#	196888
#	213908
#
# Disc length: 3121 seconds
#
# Revision: 1
# Processed by: cddbd v1.4PL0 Copyright (c) Steve Scherf et al.
# Submitted via: audiograbber 1.82.02
#
DISCID=980c2f0b
DTITLE=Guitars Unlimited - Guitars Unlimited
DYEAR=2003
DGENRE=Blues
TTITLE0=Take The Mingus Train
TTITLE1=What Became Of You
TTITLE2=First Snow In Paris
TTITLE3=Reunion
TTITLE4=Indifference
TTITLE5=Jean Pierre
TTITLE6=Take The A Train
TTITLE7=Nuages
TTITLE8=Cherokee
TTITLE9=Freddy Freeloader
TTITLE10=Blues For Guests
EXTD=
EXTT0=
EXTT1=
EXTT2=
EXTT3=
EXTT4=
EXTT5=
EXTT6=
EXTT7=
EXTT8=
EXTT9=
EXTT10=
PLAYORDER=
